<svg xmlns="http://www.w3.org/2000/svg" width="14" height="14" viewBox="0 0 14 14">
  <g fill="none" fill-rule="evenodd">
    <path fill="#EBEBEB" fill-rule="nonzero" d="M12.5,2.22044605e-16 L1.5,2.22044605e-16 C0.671572875,0 1.01453063e-16,0.671572875 0,1.5 L0,12.5 C1.01453063e-16,13.3284271 0.671572875,14 1.5,14 L12.5,14 C13.3284271,14 14,13.3284271 14,12.5 L14,1.5 C14,0.671572875 13.3284271,0 12.5,0 Z"/>
    <path fill="#000" d="M7.75,7.75 L7.75,10.6666667 C7.75,10.8507616 7.64926407,11 7.525,11 L6.475,11 C6.35073593,11 6.25,10.8507616 6.25,10.6666667 L6.25,7.75 L3.33333333,7.75 C3.14923842,7.75 3,7.64926407 3,7.525 L3,6.475 C3,6.35073593 3.14923842,6.25 3.33333333,6.25 L6.25,6.25 L6.25,3.33333333 C6.25,3.14923842 6.35073593,3 6.475,3 L7.525,3 C7.64926407,3 7.75,3.14923842 7.75,3.33333333 L7.75,6.25 L10.6666667,6.25 C10.8507616,6.25 11,6.35073593 11,6.475 L11,7.525 C11,7.64926407 10.8507616,7.75 10.6666667,7.75 L7.75,7.75 Z"/>
  </g>
</svg>
