<svg focusable="false" class="mb-1" xmlns="http://www.w3.org/2000/svg" width="28" height="28" viewBox="0 0 28 28" id="user-circle-icon">
    <g fill="none" fill-rule="evenodd">
        <circle cx="14" cy="14" r="14" fill="currentColor"/>
        <path fill="#ffffff" fill-rule="nonzero"
                d="M14.131 4.255a4.049 4.049 0 0 0-4.038 4.038 4.049 4.049 0 0 0 4.038 4.039 4.049 4.049 0 0 0 4.039-4.039 4.049 4.049 0 0 0-4.039-4.038zm0 1.346a2.682 2.682 0 0 1 2.692 2.692 2.682 2.682 0 0 1-2.692 2.692 2.682 2.682 0 0 1-2.692-2.692 2.682 2.682 0 0 1 2.692-2.692zm0 7.74c-2.056 0-3.923.437-5.332 1.23-1.409.794-2.408 2.017-2.408 3.482v3.029c0 .371.301.673.673.673h14.134a.673.673 0 0 0 .673-.673v-3.03c0-1.464-1-2.687-2.408-3.48-1.409-.794-3.276-1.23-5.332-1.23zm0 1.346c1.86 0 3.524.417 4.67 1.063 1.146.645 1.724 1.447 1.724 2.303v2.355H7.737v-2.355c0-.856.579-1.658 1.725-2.303 1.146-.646 2.81-1.063 4.67-1.063z"/>
    </g>
</svg>
