<?xml version="1.0" encoding="utf-8"?>
<!-- Generator: Adobe Illustrator 23.0.2, SVG Export Plug-In . SVG Version: 6.00 Build 0)  -->
<svg version="1.1" id="Layer_1" xmlns="http://www.w3.org/2000/svg" xmlns:xlink="http://www.w3.org/1999/xlink" x="0px" y="0px"
	 viewBox="0 0 104.2 35" style="enable-background:new 0 0 104.2 35;" xml:space="preserve">
<style type="text/css">
	.st0{fill:#026fd0;}
</style>
<g id="Menu_better_logo" transform="translate(23517.824 23446.219)">
	<path id="Path_2286" class="st0" d="M-23493.1-23430.2C-23493.1-23430.3-23493.1-23430.3-23493.1-23430.2L-23493.1-23430.2
		c3.2-0.9,6-3.6,6-7.3c0-4-2-8.7-11.1-8.7h-13.4l-6.3,35h21c5.4,0,11.5-3.5,11.5-10
		C-23485.4-23425.6-23488.7-23429.4-23493.1-23430.2z"/>
	<path id="Path_2287" class="st0" d="M-23427-23432.3c-2.9-0.1-5.3,2.1-5.5,4.9c0,0.2,0,0.3,0,0.5c0,4.2,2.8,5.4,5.6,5.4
		c1.6,0,3.3-0.4,4.7-1.2l-1.4-2.3c-0.9,0.6-1.9,0.9-3,1c-1.1,0-1.9-0.3-2.1-1.7h6.7v-0.6
		C-23421.9-23431.6-23424.9-23432.3-23427-23432.3z M-23428.6-23428c0.2-1.2,0.8-1.6,1.6-1.6c0.9,0,1.5,0.4,1.6,1.6H-23428.6z"/>
	<path id="Path_2288" class="st0" d="M-23465.2-23432.3c-1.3,0-2.4,0.7-3.1,1.8v-5.6h-3.8v14.4h3.8v-1.1c0.8,0.9,1.9,1.4,3,1.3
		c2.4,0,3.9-1.8,3.9-5.4S-23462.8-23432.3-23465.2-23432.3z M-23466.7-23424.4c-0.6,0-1.2-0.2-1.6-0.7v-3.3c0.4-0.4,1-0.7,1.6-0.8
		c1.3,0,1.6,1,1.6,2.3C-23465.1-23425.4-23465.5-23424.4-23466.7-23424.4L-23466.7-23424.4z"/>
	<path id="Path_2289" class="st0" d="M-23435.9-23435.6h-3.8v3.5h-4.3v-3.5h-3.8v3.5h-1.7v2.8h1.7v4.5c0,2,0.3,3.3,3.9,3.3
		c0.8,0,1.6-0.1,2.3-0.2v-2.7c-0.3,0.1-0.7,0.1-1,0.1c-1.1,0-1.4-0.3-1.4-1.4v-3.7h4.3v4.5c0,2,0.3,3.3,3.9,3.3
		c0.8,0,1.6-0.1,2.3-0.2v-2.7c-0.3,0.1-0.7,0.1-1,0.1c-1.1,0-1.4-0.3-1.4-1.4v-3.7h2.7v-2.8h-2.7V-23435.6z"/>
	<path id="Path_2290" class="st0" d="M-23413.7-23432.3c-1.3,0-2.6,0.6-3.2,1.8h0v-1.6h-3.8v10.4h3.8v-6.3c0.6-0.6,1.5-0.9,2.3-1
		c0.3,0,0.8,0.1,1,0.1L-23413.7-23432.3L-23413.7-23432.3z"/>
	<path id="Path_2291" class="st0" d="M-23454.9-23432.3c-2.9-0.1-5.3,2.1-5.5,4.9c0,0.2,0,0.3,0,0.5c0,4.2,2.8,5.4,5.6,5.4
		c1.6,0,3.3-0.4,4.7-1.2l-1.4-2.3c-0.9,0.6-1.9,0.9-3,1c-1.1,0-1.9-0.3-2.1-1.7h6.7v-0.6
		C-23449.9-23431.6-23452.8-23432.3-23454.9-23432.3z M-23456.5-23428c0.2-1.2,0.8-1.6,1.6-1.6c0.9,0,1.5,0.4,1.6,1.6H-23456.5z"/>
</g>
</svg>
