<?xml version="1.0" encoding="UTF-8" standalone="no"?>
<svg
   xmlns:dc="http://purl.org/dc/elements/1.1/"
   xmlns:cc="http://creativecommons.org/ns#"
   xmlns:rdf="http://www.w3.org/1999/02/22-rdf-syntax-ns#"
   xmlns:svg="http://www.w3.org/2000/svg"
   xmlns="http://www.w3.org/2000/svg"
   xmlns:sodipodi="http://sodipodi.sourceforge.net/DTD/sodipodi-0.dtd"
   xmlns:inkscape="http://www.inkscape.org/namespaces/inkscape"
   viewBox="0 0 134.97 30.8"
   version="1.1"
   id="svg34"
   sodipodi:docname="a.svg"
   inkscape:version="0.92.5 (2060ec1f9f, 2020-04-08)">
  <metadata
     id="metadata38">
    <rdf:RDF>
      <cc:Work
         rdf:about="">
        <dc:format>image/svg+xml</dc:format>
        <dc:type
           rdf:resource="http://purl.org/dc/dcmitype/StillImage" />
      </cc:Work>
    </rdf:RDF>
  </metadata>
  <sodipodi:namedview
     pagecolor="#ffffff"
     bordercolor="#666666"
     borderopacity="1"
     objecttolerance="10"
     gridtolerance="10"
     guidetolerance="10"
     inkscape:pageopacity="0"
     inkscape:pageshadow="2"
     inkscape:window-width="1390"
     inkscape:window-height="759"
     id="namedview36"
     showgrid="false"
     inkscape:zoom="3.6358606"
     inkscape:cx="100.91035"
     inkscape:cy="29.013689"
     inkscape:window-x="2102"
     inkscape:window-y="202"
     inkscape:window-maximized="0"
     inkscape:current-layer="svg34" />
  <defs
     id="defs4">
    <style
       id="style2">.cls-1 {
            fill: #026fd0;
        }</style>
  </defs>
  <title
     id="title6">AQL builder</title>
  <g
     id="Layer_2"
     data-name="Layer 2">
    <g
       id="Layer_1-2"
       data-name="Layer 1">
      <path
         class="cls-1"
         d="M0,30.47,5.41.46H16.9c7.8,0,9.5,4,9.5,7.44a6.72,6.72,0,0,1-5.19,6.24c-.06,0-.05,0,0,0a8.16,8.16,0,0,1,6.63,7.77c0,5.58-5.27,8.55-9.86,8.55Z"
         id="path8" />
      <path
         class="cls-1"
         d="M45.14,3.23a3.09,3.09,0,0,0-2.65,1.54V0H39.2V12.31h3.29v-1a3.16,3.16,0,0,0,2.61,1.1c2,0,3.36-1.53,3.36-4.59S47.15,3.23,45.14,3.23ZM43.85,10a1.84,1.84,0,0,1-1.36-.57V6.57a2.11,2.11,0,0,1,1.33-.65c1.1,0,1.35.85,1.35,2C45.17,9.13,44.84,10,43.85,10ZM54,3.23a4.47,4.47,0,0,0-4.69,4.64c0,3.61,2.37,4.62,4.81,4.62a7.29,7.29,0,0,0,4-1.06l-1.18-2a5.53,5.53,0,0,1-2.56.82c-1,0-1.61-.29-1.78-1.45h5.71V8.3C58.28,3.86,55.75,3.23,54,3.23ZM52.6,6.92c.2-1,.72-1.4,1.37-1.4s1.26.33,1.39,1.4ZM70.22,3.39H72.5V5.75H70.22V8.9c0,.95.24,1.18,1.17,1.18a3.83,3.83,0,0,0,.86-.1v2.29a15.19,15.19,0,0,1-2,.15c-3,0-3.31-1.06-3.31-2.79V5.75H63.21V8.9c0,.95.23,1.18,1.16,1.18a3.76,3.76,0,0,0,.86-.1v2.29a15.19,15.19,0,0,1-2,.15c-3,0-3.31-1.06-3.31-2.79V5.75H58.47V3.39h1.44V.4h3.3v3h3.72V.4h3.29Zm7.69-.16a4.47,4.47,0,0,0-4.69,4.64c0,3.61,2.36,4.62,4.81,4.62a7.29,7.29,0,0,0,4-1.06l-1.18-2a5.58,5.58,0,0,1-2.57.82c-1,0-1.61-.29-1.77-1.45h5.7V8.3C82.2,3.86,79.67,3.23,77.91,3.23ZM76.53,6.92c.2-1,.71-1.4,1.36-1.4s1.27.33,1.4,1.4ZM89.34,3.23V6.14a8.1,8.1,0,0,0-.83-.07,3.09,3.09,0,0,0-2,.82v5.42H83.22V3.39h3.29V4.77h0a3.08,3.08,0,0,1,2.78-1.54Z"
         id="path10" />
      <path
         d="M42.64,15h3.1L50.1,27.42H46.74L46,25.12H42.11l-.8,2.3h-3Zm2.6,7.71-1.13-3.41h0l-1.18,3.41Z"
         id="path12" />
      <path
         d="M55,27.39c-2.26-.65-4.18-2.57-4.18-6.14,0-4.51,3.08-6.39,6.07-6.39s6.05,1.88,6.05,6.39c0,3.75-2.14,5.69-4.55,6.24.41.8,1.33.71,2.5.71h.85v2.6H59.18C56.67,30.8,55.07,29.35,55,27.39Zm4.6-6.14c0-2.26-1-3.65-2.71-3.65S54.13,19,54.13,21.25s1,3.74,2.74,3.74S59.58,23.52,59.58,21.25Z"
         id="path14" />
      <path
         d="M64.66,15.09H68v9.65h5.18v2.68H64.66Z"
         id="path16" />
      <path
         d="M80.06,26.45v1h-3.3V15.09h3.3v4.78a3.08,3.08,0,0,1,2.65-1.55c2,0,3.33,1.57,3.33,4.63s-1.33,4.6-3.37,4.6A3.15,3.15,0,0,1,80.06,26.45ZM82.74,23c0-1.1-.25-1.95-1.35-1.95a2.06,2.06,0,0,0-1.33.65v2.87a1.83,1.83,0,0,0,1.36.56C82.41,25.1,82.74,24.24,82.74,23Z"
         id="path18" />
      <path
         d="M87.27,25V18.49h3.3V24c0,.62.2,1,.75,1a2.37,2.37,0,0,0,1.48-.64V18.49h3.3v8.93H92.8V26.05a3.38,3.38,0,0,1-3,1.55A2.32,2.32,0,0,1,87.27,25Z"
         id="path20" />
      <path
         d="M98,15.09h3.3v2.53H98Zm0,3.4h3.3v8.93H98Z"
         id="path22" />
      <path
         d="M103.25,15.09h3.3V27.42h-3.3Z"
         id="path24" />
      <path
         d="M107.94,23.05c0-3.06,1.34-4.73,3.37-4.73a2.87,2.87,0,0,1,2.62,1.23V15.09h3.3V25.25a5.66,5.66,0,0,0,.26,2.17h-3.36a3.35,3.35,0,0,1-.2-1.33,3,3,0,0,1-2.65,1.46C109.26,27.55,107.94,26.12,107.94,23.05Zm6,1.4V21.59a1.84,1.84,0,0,0-1.37-.57c-1,0-1.32.75-1.32,2,0,1.1.25,2.06,1.35,2.06A2.06,2.06,0,0,0,113.93,24.45Z"
         id="path26" />
      <path
         d="M118.54,23a4.48,4.48,0,0,1,4.7-4.65c1.76,0,4.3.63,4.3,5.08v.5h-5.72c.17,1.17.82,1.45,1.79,1.45a5.53,5.53,0,0,0,2.56-.81l1.18,2a7.29,7.29,0,0,1-4,1.06C120.91,27.6,118.54,26.59,118.54,23Zm6.08-.95c-.13-1.07-.62-1.4-1.4-1.4s-1.16.38-1.36,1.4Z"
         id="path28" />
      <path
         d="M128.84,18.49h3.29v1.38h0a3.06,3.06,0,0,1,2.78-1.55h0v2.92a8.33,8.33,0,0,0-.84-.07,3.12,3.12,0,0,0-2,.82v5.43h-3.29Z"
         id="path30" />
    </g>
  </g>
  <text
     xml:space="preserve"
     style="font-style:italic;font-variant:normal;font-weight:normal;font-stretch:normal;font-size:8px;line-height:1.25;font-family:sans-serif;-inkscape-font-specification:'sans-serif, Italic';font-variant-ligatures:normal;font-variant-caps:normal;font-variant-numeric:normal;font-feature-settings:normal;text-align:start;letter-spacing:0px;word-spacing:0px;writing-mode:lr-tb;text-anchor:start;fill:#000000;fill-opacity:1;stroke:none"
     x="93.351013"
     y="7.4622469"
     id="text3745"><tspan
       sodipodi:role="line"
       id="tspan3743"
       x="93.351013"
       y="7.4622469"
       style="font-style:italic;font-variant:normal;font-weight:normal;font-stretch:normal;font-size:8px;font-family:sans-serif;-inkscape-font-specification:'sans-serif, Italic';font-variant-ligatures:normal;font-variant-caps:normal;font-variant-numeric:normal;font-feature-settings:normal;text-align:start;writing-mode:lr-tb;text-anchor:start;fill:#ff0000">EHRBase</tspan><tspan
       sodipodi:role="line"
       x="93.351013"
       y="7.4622469"
       style="font-style:italic;font-variant:normal;font-weight:normal;font-stretch:normal;font-size:8px;font-family:sans-serif;-inkscape-font-specification:'sans-serif, Italic';font-variant-ligatures:normal;font-variant-caps:normal;font-variant-numeric:normal;font-feature-settings:normal;text-align:start;writing-mode:lr-tb;text-anchor:start;fill:#ff0000"
       id="tspan3749" /></text>
  <text
     xml:space="preserve"
     style="font-style:normal;font-weight:normal;font-size:40px;line-height:1.25;font-family:sans-serif;letter-spacing:0px;word-spacing:0px;fill:#000000;fill-opacity:1;stroke:none"
     x="100.58273"
     y="11.841346"
     id="text3754"
     inkscape:transform-center-x="-84.404873"
     inkscape:transform-center-y="-18.28124"><tspan
       sodipodi:role="line"
       id="tspan3752"
       x="100.58273"
       y="11.841346"
       style="font-style:normal;font-variant:normal;font-weight:normal;font-stretch:normal;font-size:5.33333349px;font-family:sans-serif;-inkscape-font-specification:'sans-serif, Normal';font-variant-ligatures:normal;font-variant-caps:normal;font-variant-numeric:normal;font-feature-settings:normal;text-align:start;writing-mode:lr-tb;text-anchor:start;fill:#ff0000">version</tspan></text>
</svg>
