<svg id="nav-puzzle" focusable="false" xmlns="http://www.w3.org/2000/svg" width="28" height="29" viewBox="0 0 28 29">
    <g fill="none" fill-rule="evenodd" stroke="currentColor" stroke-width="2" transform="translate(-.335)">
        <rect width="26" height="26" x="1.335" y="1.34" rx="5"/>
        <path fill-rule="nonzero" stroke-linejoin="round"
                d="M16.736 7.108a2.313 2.313 0 0 1-.32 1.68.362.362 0 0 0-.011.371.327.327 0 0 0 .288.174h4.884v13.331H7.046V17.89l1.292.394c.212.065.432.098.663.097a2.309 2.309 0 0 0 2.316-2.09c.113-1.19-.702-2.271-1.919-2.497a2.063 2.063 0 0 0-1.085.046l-1.299.415-.018-4.93h4.88c.14 0 .27-.075.33-.188a.351.351 0 0 0-.013-.348 2.73 2.73 0 0 1-.366-1.293 2.475 2.475 0 0 1 3.061-2.425 2.5 2.5 0 0 1 1.845 1.994l.003.044z"/>
    </g>
</svg>
